<svg xmlns="http://www.w3.org/2000/svg" viewBox="0 0 649.27 114.63">
    <defs><style>.cls-1{fill:#ffffff;}.cls-2{fill:#03bd52;}
    </style></defs><title>mycenter</title>
    <g id="wordmark">
        <path class="cls-1" d="M219.55,31.62q10,0,16,6.51t6,17.43V91.34h-15V56.6q0-5.22-2.55-8.13a9.09,9.09,0,0,0-7.2-2.9,9.87,9.87,0,0,0-8,3.36Q206,52.31,206,58.69V91.34H191V56.6c0-3.48-.86-6.19-2.56-8.13a9.07,9.07,0,0,0-7.2-2.9,10.09,10.09,0,0,0-8,3.36q-3,3.38-3,9.76V91.34h-15V33.25h15v6.16q5.22-7.78,16.15-7.79,10.68,0,15.79,8.37Q208.06,31.62,219.55,31.62Z"/>
        <path class="cls-1" d="M290.88,33.25h16L285.74,91.43q-4.53,12.43-12,18.08t-18.63,5.06V100.63q6,.12,9.59-2.56t5.63-8.59L246.51,33.25h16.38l15.14,39Z"/>
        <path class="cls-1" d="M339.33,93q-13.12,0-21.9-8.83a29.74,29.74,0,0,1-8.77-21.84,29.77,29.77,0,0,1,8.77-21.84q8.77-8.82,21.9-8.83a30.13,30.13,0,0,1,15.45,4.07,27,27,0,0,1,10.57,10.92l-12.89,7.55a13.2,13.2,0,0,0-5.29-5.69,15.31,15.31,0,0,0-8-2.09,15,15,0,0,0-11.15,4.47,15.61,15.61,0,0,0-4.41,11.44,15.47,15.47,0,0,0,4.41,11.33,15,15,0,0,0,11.15,4.47,15.93,15.93,0,0,0,8.08-2,12.76,12.76,0,0,0,5.28-5.63l13,7.43a29,29,0,0,1-10.8,11A29.78,29.78,0,0,1,339.33,93Z"/>
        <path class="cls-1" d="M385.22,68.45q3,10.92,16.38,10.92,8.59,0,13-5.81l12.08,7Q418.1,93,401.37,93,387,93,378.25,84.25t-8.72-22q0-13.12,8.6-21.89t22.07-8.78q12.78,0,21.09,8.83t8.3,21.84a34.83,34.83,0,0,1-.58,6.16ZM385,56.83h29.63A14.06,14.06,0,0,0,409.32,48a15.18,15.18,0,0,0-9.12-2.9,15.77,15.77,0,0,0-10,3.08A14.78,14.78,0,0,0,385,56.83Z"/>
        <path class="cls-1" d="M472.34,31.62A21.09,21.09,0,0,1,488.09,38q6.21,6.39,6.21,17.66V91.34h-15V57.53q0-5.81-3.13-8.89a11.43,11.43,0,0,0-8.37-3.07,12.33,12.33,0,0,0-9.29,3.6Q455,52.77,455,60V91.34h-15V33.25h15v6.51Q460.49,31.63,472.34,31.62Z"/>
        <path class="cls-1" d="M540.3,47.66H527.18V71.82a5.72,5.72,0,0,0,1.51,4.41,6.88,6.88,0,0,0,4.41,1.57,62.92,62.92,0,0,0,7.2-.06v13.6q-15.45,1.74-21.78-2.91t-6.33-16.61V47.66H502.08V33.25h10.11V21.52l15-4.53V33.25H540.3Z"/>
        <path class="cls-1" d="M561.8,68.45q3,10.92,16.38,10.92,8.6,0,13-5.81l12.08,7Q594.67,93,577.94,93q-14.4,0-23.11-8.71t-8.72-22q0-13.12,8.6-21.89t22.07-8.78q12.78,0,21.09,8.83t8.3,21.84a34.83,34.83,0,0,1-.58,6.16Zm-.24-11.62h29.63A14.06,14.06,0,0,0,585.9,48a15.18,15.18,0,0,0-9.12-2.9,15.79,15.79,0,0,0-10,3.08A14.78,14.78,0,0,0,561.56,56.83Z"/>
        <path class="cls-1" d="M631.61,43.24a15.65,15.65,0,0,1,6.92-8.36,21,21,0,0,1,10.74-2.79V48.82A17.64,17.64,0,0,0,637,51.61q-5.4,3.6-5.41,12V91.34h-15V33.25h15Z"/>
    </g>
    <g id="icon">
        <path class="cls-1" d="M28.05,73.83v34.93H1.68V45.56A69.54,69.54,0,0,0,28.05,73.83Z"/>
        <path class="cls-1" d="M125,46.09v62.67H98.61V74A69.16,69.16,0,0,0,125,46.09Z"/>
        <path class="cls-2" d="M126.6,13.86A63.3,63.3,0,0,1,0,13.86H20.48a42.82,42.82,0,0,0,85.64,0Z"/>
        <circle class="cls-1" cx="61.56" cy="13.86" r="13.86"/>
    </g>
</svg>