<svg width="20" height="24" viewBox="0 0 20 24" fill="none" xmlns="http://www.w3.org/2000/svg">
<path d="M9.81222 0.938477C15.0552 0.938477 19.3055 5.13547 19.3055 10.3127C19.3055 14.2736 16.4871 18.5902 10.9224 23.3096C10.2839 23.8511 9.34056 23.8511 8.69948 23.3074L8.33168 22.9926C3.01324 18.3975 0.318985 14.1853 0.318985 10.3127C0.318985 5.13547 4.56925 0.938477 9.81222 0.938477ZM9.81222 2.38067C5.37586 2.38067 1.77948 5.93197 1.77948 10.3127C1.77948 13.6798 4.26077 17.5591 9.29087 21.905L9.6536 22.2155C9.74482 22.2929 9.87959 22.2929 9.97081 22.2155C15.2442 17.7432 17.845 13.7599 17.845 10.3127C17.845 5.93197 14.2486 2.38067 9.81222 2.38067ZM9.81222 6.70724C11.8287 6.70724 13.4635 8.32147 13.4635 10.3127C13.4635 12.304 11.8287 13.9182 9.81222 13.9182C7.79569 13.9182 6.16097 12.304 6.16097 10.3127C6.16097 8.32147 7.79569 6.70724 9.81222 6.70724ZM9.81222 8.14943C8.6023 8.14943 7.62147 9.11797 7.62147 10.3127C7.62147 11.5075 8.6023 12.476 9.81222 12.476C11.0221 12.476 12.003 11.5075 12.003 10.3127C12.003 9.11797 11.0221 8.14943 9.81222 8.14943Z" fill="#2C48BF"/>
</svg>
