<svg width="25" height="16" viewBox="0 0 25 16" fill="none" xmlns="http://www.w3.org/2000/svg">
<path d="M20.2771 6.61914C20.9021 6.61914 21.488 6.73633 22.0349 6.9707C22.5817 7.20508 23.0622 7.52148 23.4763 7.91992C23.8903 8.31836 24.2146 8.79492 24.4489 9.34961C24.6833 9.9043 24.8044 10.4941 24.8122 11.1191C24.8122 11.7441 24.695 12.3262 24.4607 12.8652C24.2263 13.4043 23.906 13.8809 23.4997 14.2949C23.0935 14.709 22.613 15.0332 22.0583 15.2676C21.5036 15.502 20.9216 15.6191 20.3122 15.6191H6.81222C5.98409 15.6191 5.20675 15.4629 4.48019 15.1504C3.75362 14.8379 3.11691 14.4121 2.57003 13.873C2.02316 13.334 1.59347 12.6973 1.28097 11.9629C0.968468 11.2285 0.812218 10.4473 0.812218 9.61914C0.812218 8.79102 0.968468 8.01367 1.28097 7.28711C1.59347 6.56055 2.01925 5.92383 2.55831 5.37695C3.09737 4.83008 3.73409 4.40039 4.46847 4.08789C5.20284 3.77539 5.98409 3.61914 6.81222 3.61914C7.17159 3.61914 7.53487 3.6543 7.90206 3.72461C8.21456 3.24023 8.57394 2.80664 8.98019 2.42383C9.38644 2.04102 9.83566 1.71289 10.3278 1.43945C10.82 1.16602 11.3357 0.962891 11.8747 0.830078C12.4138 0.697266 12.9763 0.626953 13.5622 0.619141C14.4294 0.619141 15.2458 0.771484 16.0114 1.07617C16.7771 1.38086 17.4607 1.79883 18.0622 2.33008C18.6638 2.86133 19.1521 3.49805 19.5271 4.24023C19.9021 4.98242 20.1521 5.77539 20.2771 6.61914ZM20.3122 14.1191C20.7263 14.1191 21.113 14.041 21.4724 13.8848C21.8317 13.7285 22.1521 13.5137 22.4333 13.2402C22.7146 12.9668 22.9294 12.6504 23.0778 12.291C23.2263 11.9316 23.3044 11.541 23.3122 11.1191C23.3122 10.7051 23.2341 10.3184 23.0778 9.95898C22.9216 9.59961 22.7067 9.2793 22.4333 8.99805C22.1599 8.7168 21.8435 8.50195 21.4841 8.35352C21.1247 8.20508 20.7341 8.12695 20.3122 8.11914H18.8122V7.36914C18.8122 6.64258 18.6755 5.96289 18.4021 5.33008C18.1286 4.69727 17.7536 4.13867 17.2771 3.6543C16.8005 3.16992 16.2458 2.79492 15.613 2.5293C14.9802 2.26367 14.2966 2.12695 13.5622 2.11914C13.0153 2.11914 12.488 2.20117 11.9802 2.36523C11.4724 2.5293 11.0075 2.75977 10.5857 3.05664C10.1638 3.35352 9.78487 3.70898 9.44894 4.12305C9.113 4.53711 8.85128 5.00586 8.66378 5.5293C8.07784 5.25586 7.46066 5.11914 6.81222 5.11914C6.18722 5.11914 5.60519 5.23633 5.06612 5.4707C4.52706 5.70508 4.0505 6.02539 3.63644 6.43164C3.22237 6.83789 2.89816 7.31836 2.66378 7.87305C2.42941 8.42773 2.31222 9.00977 2.31222 9.61914C2.31222 10.2441 2.42941 10.8262 2.66378 11.3652C2.89816 11.9043 3.21847 12.3809 3.62472 12.7949C4.03097 13.209 4.50753 13.5332 5.05441 13.7676C5.60128 14.002 6.18722 14.1191 6.81222 14.1191H20.3122Z" fill="#2746C5"/>
</svg>
