<svg width="24" height="24" viewBox="0 0 24 24" fill="none" xmlns="http://www.w3.org/2000/svg">
<path d="M3 14.25C3 13.5469 3.13281 12.875 3.39844 12.2344C3.66406 11.5938 4.04297 11.0273 4.53516 10.5352L7.00781 8.0625L14.4375 15.4922L11.9648 17.9648C11.4727 18.457 10.9062 18.8359 10.2656 19.1016C9.625 19.3672 8.95312 19.5 8.25 19.5C7.67969 19.5 7.12891 19.4141 6.59766 19.2422C6.06641 19.0703 5.57031 18.8086 5.10938 18.457L1.27734 22.2773L0.222656 21.2227L4.04297 17.3906C3.69922 16.9375 3.44141 16.4453 3.26953 15.9141C3.09766 15.3828 3.00781 14.8281 3 14.25ZM8.25 18.0352C8.74219 18.0352 9.17188 17.9688 9.53906 17.8359C9.90625 17.7031 10.25 17.5156 10.5703 17.2734C10.8906 17.0312 11.1875 16.7617 11.4609 16.4648C11.7344 16.168 12.043 15.8516 12.3867 15.5156L6.98438 10.1133C6.66406 10.4336 6.35156 10.7383 6.04688 11.0273C5.74219 11.3164 5.46484 11.6172 5.21484 11.9297C4.96484 12.2422 4.77344 12.5859 4.64062 12.9609C4.50781 13.3359 4.43359 13.7656 4.41797 14.25C4.41797 14.7891 4.51562 15.2891 4.71094 15.75C4.90625 16.2109 5.17969 16.6094 5.53125 16.9453C5.88281 17.2812 6.28906 17.5469 6.75 17.7422C7.21094 17.9375 7.71094 18.0352 8.25 18.0352ZM19.5 8.25C19.5 8.94531 19.3672 9.61328 19.1016 10.2539C18.8359 10.8945 18.457 11.4648 17.9648 11.9648L15.4805 14.4375L8.0625 7.01953L10.5352 4.53516C11.0273 4.04297 11.5977 3.67188 12.2461 3.42188C12.8945 3.17188 13.5625 3.04688 14.25 3.04688C14.8125 3.04688 15.3633 3.12891 15.9023 3.29297C16.4414 3.45703 16.9375 3.70703 17.3906 4.04297L21.2227 0.222656L22.2773 1.27734L18.457 5.10938C18.8008 5.5625 19.0586 6.05469 19.2305 6.58594C19.4023 7.11719 19.4922 7.67188 19.5 8.25ZM15.5156 12.3984C15.8359 12.0859 16.1484 11.7852 16.4531 11.4961C16.7578 11.207 17.0312 10.9023 17.2734 10.582C17.5156 10.2617 17.7109 9.91406 17.8594 9.53906C18.0078 9.16406 18.082 8.73438 18.082 8.25C18.082 7.71094 17.9844 7.21094 17.7891 6.75C17.5938 6.28906 17.3203 5.89062 16.9688 5.55469C16.6172 5.21875 16.2109 4.95312 15.75 4.75781C15.2891 4.5625 14.7891 4.46484 14.25 4.46484C13.7578 4.46484 13.3281 4.53516 12.9609 4.67578C12.5938 4.81641 12.25 5 11.9297 5.22656C11.6094 5.45312 11.3086 5.72266 11.0273 6.03516C10.7461 6.34766 10.4375 6.66406 10.1016 6.98438L15.5156 12.3984ZM24 21H21V24H19.5V21H16.5V19.5H19.5V16.5H21V19.5H24V21Z" fill="#2196F3"/>
</svg>
