<svg width="24" height="24" viewBox="0 0 24 24" fill="none" xmlns="http://www.w3.org/2000/svg">
<path d="M15.2344 14.0742L12.0586 17.25L13.1133 18.3047L10.4648 20.9648C9.97266 21.457 9.40625 21.8359 8.76562 22.1016C8.125 22.3672 7.45312 22.5 6.75 22.5C6.17969 22.5 5.62891 22.4141 5.09766 22.2422C4.56641 22.0703 4.07031 21.8086 3.60938 21.457L1.27734 23.7773L0.222656 22.7227L2.54297 20.3906C2.19922 19.9375 1.94141 19.4453 1.76953 18.9141C1.59766 18.3828 1.50781 17.8281 1.5 17.25C1.5 16.5547 1.63281 15.8867 1.89844 15.2461C2.16406 14.6055 2.54297 14.0352 3.03516 13.5352L5.69531 10.8867L6.75 11.9414L9.92578 8.76562L10.9922 9.82031L7.80469 13.0078L10.9922 16.1953L14.1797 13.0078L15.2344 14.0742ZM6.75 21C7.25 21 7.72656 20.9062 8.17969 20.7188C8.63281 20.5312 9.03906 20.2578 9.39844 19.8984L10.9922 18.3047L5.69531 13.0078L4.10156 14.6016C3.75 14.9531 3.48047 15.3555 3.29297 15.8086C3.10547 16.2617 3.00781 16.7422 3 17.25C3 17.7656 3.09766 18.25 3.29297 18.7031C3.48828 19.1562 3.75391 19.5547 4.08984 19.8984C4.42578 20.2422 4.82422 20.5117 5.28516 20.707C5.74609 20.9023 6.23438 21 6.75 21ZM21.457 3.60938C21.8008 4.0625 22.0586 4.55469 22.2305 5.08594C22.4023 5.61719 22.4922 6.17188 22.5 6.75C22.5 7.44531 22.3672 8.11328 22.1016 8.75391C21.8359 9.39453 21.457 9.96484 20.9648 10.4648L18.3047 13.1133L10.8867 5.69531L13.5352 3.03516C14.0273 2.54297 14.5938 2.16406 15.2344 1.89844C15.875 1.63281 16.5469 1.5 17.25 1.5C17.8203 1.5 18.3711 1.58594 18.9023 1.75781C19.4336 1.92969 19.9297 2.19141 20.3906 2.54297L22.7227 0.222656L23.7773 1.27734L21.457 3.60938ZM19.8984 9.39844C20.25 9.04688 20.5195 8.64453 20.707 8.19141C20.8945 7.73828 20.9922 7.25781 21 6.75C21 6.23438 20.9023 5.75 20.707 5.29688C20.5117 4.84375 20.2422 4.44922 19.8984 4.11328C19.5547 3.77734 19.1562 3.50781 18.7031 3.30469C18.25 3.10156 17.7656 3 17.25 3C16.75 3 16.2734 3.09375 15.8203 3.28125C15.3672 3.46875 14.9609 3.74219 14.6016 4.10156L13.0078 5.69531L18.3047 10.9922L19.8984 9.39844Z" fill="#2746C5"/>
</svg>
