<svg width="18" height="16" viewBox="0 0 18 16" fill="none" xmlns="http://www.w3.org/2000/svg">
<path d="M7.13782 6.39355H8.20032V7.45605H7.13782V6.39355ZM10.3253 12.7686H11.3878V13.8311H10.3253V12.7686ZM13.5128 6.39355H14.5753V7.45605H13.5128V6.39355ZM10.3253 6.39355H11.3878V7.45605H10.3253V6.39355ZM7.13782 8.51855H8.20032V9.58105H7.13782V8.51855ZM3.95032 8.51855H5.01282V9.58105H3.95032V8.51855ZM13.5128 8.51855H14.5753V9.58105H13.5128V8.51855ZM10.3253 8.51855H11.3878V9.58105H10.3253V8.51855ZM7.13782 10.6436H8.20032V11.7061H7.13782V10.6436ZM3.95032 10.6436H5.01282V11.7061H3.95032V10.6436ZM13.5128 10.6436H14.5753V11.7061H13.5128V10.6436ZM10.3253 10.6436H11.3878V11.7061H10.3253V10.6436ZM7.13782 12.7686H8.20032V13.8311H7.13782V12.7686ZM3.95032 12.7686H5.01282V13.8311H3.95032V12.7686ZM17.7628 1.08105V15.9561H0.762817V1.08105H3.95032V0.0185547H5.01282V1.08105H13.5128V0.0185547H14.5753V1.08105H17.7628ZM1.82532 2.14355V4.26855H16.7003V2.14355H14.5753V3.20605H13.5128V2.14355H5.01282V3.20605H3.95032V2.14355H1.82532ZM16.7003 14.8936V5.33105H1.82532V14.8936H16.7003Z" fill="#2C48BF"/>
</svg>
