<svg width="24" height="21" viewBox="0 0 24 21" fill="none" xmlns="http://www.w3.org/2000/svg">
<path d="M1.5 1.5V12H12.7148C12.5664 12.2344 12.4375 12.4766 12.3281 12.7266C12.2188 12.9766 12.1172 13.2344 12.0234 13.5H12V13.582C11.9844 13.6758 11.9609 13.7695 11.9297 13.8633C11.8984 13.957 11.8672 14.0508 11.8359 14.1445C11.7734 14.4102 11.7227 14.6758 11.6836 14.9414C11.6445 15.207 11.625 15.4766 11.625 15.75C11.625 15.875 11.6328 16 11.6484 16.125C11.6641 16.25 11.6797 16.375 11.6953 16.5H7.5V15H10.5V13.5H0V0H22.5V9.71484C22.2656 9.56641 22.0234 9.4375 21.7734 9.32812C21.5234 9.21875 21.2656 9.11719 21 9.02344V1.5H1.5ZM18.75 10.5C19.4766 10.5 20.1562 10.6367 20.7891 10.9102C21.4219 11.1836 21.9805 11.5586 22.4648 12.0352C22.9492 12.5117 23.3242 13.0664 23.5898 13.6992C23.8555 14.332 23.9922 15.0156 24 15.75C24 16.4766 23.8633 17.1562 23.5898 17.7891C23.3164 18.4219 22.9414 18.9805 22.4648 19.4648C21.9883 19.9492 21.4336 20.3242 20.8008 20.5898C20.168 20.8555 19.4844 20.9922 18.75 21C18.0234 21 17.3438 20.8633 16.7109 20.5898C16.0781 20.3164 15.5195 19.9414 15.0352 19.4648C14.5508 18.9883 14.1758 18.4336 13.9102 17.8008C13.6445 17.168 13.5078 16.4844 13.5 15.75C13.5 15.0234 13.6367 14.3438 13.9102 13.7109C14.1836 13.0781 14.5586 12.5195 15.0352 12.0352C15.5117 11.5508 16.0664 11.1758 16.6992 10.9102C17.332 10.6445 18.0156 10.5078 18.75 10.5ZM15 15.75C15 16.2656 15.0977 16.75 15.293 17.2031C15.4883 17.6562 15.7539 18.0547 16.0898 18.3984C16.4258 18.7422 16.8242 19.0117 17.2852 19.207C17.7461 19.4023 18.2344 19.5 18.75 19.5C19.1172 19.5 19.4766 19.4492 19.8281 19.3477C20.1797 19.2461 20.5078 19.0898 20.8125 18.8789L15.6211 13.6875C15.418 13.9922 15.2656 14.3203 15.1641 14.6719C15.0625 15.0234 15.0078 15.3828 15 15.75ZM21.8789 17.8125C22.082 17.5078 22.2344 17.1797 22.3359 16.8281C22.4375 16.4766 22.4922 16.1172 22.5 15.75C22.5 15.2344 22.4023 14.75 22.207 14.2969C22.0117 13.8438 21.7422 13.4492 21.3984 13.1133C21.0547 12.7773 20.6562 12.5078 20.2031 12.3047C19.75 12.1016 19.2656 12 18.75 12C18.3828 12 18.0234 12.0508 17.6719 12.1523C17.3203 12.2539 16.9922 12.4102 16.6875 12.6211L21.8789 17.8125Z" fill="#EC4343"/>
</svg>
