<svg width="19" height="21" viewBox="0 0 19 21" fill="none" xmlns="http://www.w3.org/2000/svg">
<path d="M9.26282 6.34277C10.9197 6.34277 12.2628 7.68592 12.2628 9.34277C12.2628 10.6799 11.388 11.8127 10.1796 12.2001L10.0128 12.2483V14.3428H15.2628C16.9197 14.3428 18.2628 15.6859 18.2628 17.3428C18.2628 18.9405 17.0139 20.2464 15.4391 20.3377L15.2628 20.3428H3.26282C1.60597 20.3428 0.262817 18.9997 0.262817 17.3428C0.262817 15.745 1.51174 14.4391 3.08654 14.3479L3.26282 14.3428H8.51282V12.2483C7.2189 11.9153 6.26282 10.7407 6.26282 9.34277C6.26282 7.68592 7.60592 6.34277 9.26282 6.34277ZM15.2628 15.8428H3.26282C2.43439 15.8428 1.76282 16.5144 1.76282 17.3428C1.76282 18.1712 2.43439 18.8428 3.26282 18.8428H15.2628C16.0912 18.8428 16.7628 18.1712 16.7628 17.3428C16.7628 16.5144 16.0912 15.8428 15.2628 15.8428ZM9.26282 7.84277C8.43442 7.84277 7.76282 8.51437 7.76282 9.34277C7.76282 10.1712 8.43442 10.8428 9.26282 10.8428C10.0912 10.8428 10.7628 10.1712 10.7628 9.34277C10.7628 8.51437 10.0912 7.84277 9.26282 7.84277ZM9.26282 0.342773C14.2334 0.342773 18.2628 4.37221 18.2628 9.34277V9.59277C18.2628 10.007 17.927 10.3428 17.5128 10.3428C17.0986 10.3428 16.7628 10.007 16.7628 9.59277V9.34277C16.7628 5.20063 13.4049 1.84277 9.26282 1.84277C5.12068 1.84277 1.76282 5.20063 1.76282 9.34277V9.59277C1.76282 10.007 1.42703 10.3428 1.01282 10.3428C0.598607 10.3428 0.262817 10.007 0.262817 9.59277V9.34277C0.262817 4.37221 4.29226 0.342773 9.26282 0.342773ZM9.26282 3.34277C12.5765 3.34277 15.2628 6.02906 15.2628 9.34277V9.59277C15.2628 10.007 14.927 10.3428 14.5128 10.3428C14.0986 10.3428 13.7628 10.007 13.7628 9.59277V9.34277C13.7628 6.85749 11.7481 4.84277 9.26282 4.84277C6.77754 4.84277 4.76282 6.85749 4.76282 9.34277V9.59277C4.76282 10.007 4.42703 10.3428 4.01282 10.3428C3.59861 10.3428 3.26282 10.007 3.26282 9.59277V9.34277C3.26282 6.02906 5.94911 3.34277 9.26282 3.34277Z" fill="#2C48BF"/>
</svg>
