<svg width="10" height="10" viewBox="0 0 10 10" fill="none" xmlns="http://www.w3.org/2000/svg">
<path d="M10 1.63574C10 1.85059 9.95931 2.05892 9.87793 2.26074C9.79655 2.46257 9.67773 2.6416 9.52148 2.79785L3.09082 9.22852L0 10L0.771484 6.90918L7.20215 0.478516C7.3584 0.322266 7.53743 0.203451 7.73926 0.12207C7.94108 0.0406901 8.14941 0 8.36426 0C8.58887 0 8.80046 0.0439453 8.99902 0.131836C9.19759 0.216471 9.37012 0.333659 9.5166 0.483398C9.66634 0.629883 9.78353 0.802409 9.86816 1.00098C9.95605 1.19954 10 1.41113 10 1.63574ZM1.5918 6.97266C1.93685 7.08659 2.23307 7.26888 2.48047 7.51953C2.73112 7.76693 2.91341 8.06315 3.02734 8.4082L8.30566 3.125L6.875 1.69434L1.5918 6.97266ZM0.859375 9.14062L2.46582 8.74023C2.43327 8.59049 2.37956 8.44889 2.30469 8.31543C2.23307 8.18197 2.14518 8.06315 2.04102 7.95898C1.93685 7.85482 1.81803 7.76693 1.68457 7.69531C1.55111 7.62044 1.40951 7.56673 1.25977 7.53418L0.859375 9.14062ZM8.75 2.68066C8.83138 2.59928 8.90951 2.52279 8.98438 2.45117C9.05924 2.37956 9.12598 2.30469 9.18457 2.22656C9.24316 2.14518 9.28874 2.05892 9.32129 1.96777C9.3571 1.87337 9.375 1.76432 9.375 1.64062C9.375 1.50065 9.34733 1.37044 9.29199 1.25C9.23991 1.1263 9.16667 1.01888 9.07227 0.927734C8.98112 0.833333 8.8737 0.760091 8.75 0.708008C8.62956 0.652669 8.49935 0.625 8.35938 0.625C8.23568 0.625 8.12663 0.642904 8.03223 0.678711C7.94108 0.711263 7.85482 0.756836 7.77344 0.81543C7.69531 0.874023 7.62044 0.940755 7.54883 1.01562C7.47721 1.09049 7.40072 1.16862 7.31934 1.25L8.75 2.68066Z" fill="#707070"/>
</svg>
