<svg width="77" height="76" viewBox="0 0 77 76" fill="none" xmlns="http://www.w3.org/2000/svg">
<path d="M38.4182 76C59.405 76 76.4182 58.9868 76.4182 38C76.4182 17.0132 59.405 0 38.4182 0C17.4314 0 0.418213 17.0132 0.418213 38C0.418213 58.9868 17.4314 76 38.4182 76Z" fill="#DCFAF8"/>
<path d="M52.926 29.5501C53.4071 30.0157 53.4073 30.7872 52.9264 31.2531L34.9651 48.6512C34.1892 49.4027 32.9569 49.4025 32.1814 48.6506L23.9097 40.6314C23.4289 40.1652 23.4292 39.3937 23.9105 38.928C24.3698 38.4834 25.0989 38.483 25.5587 38.9271L32.1829 45.3238C32.9582 46.0725 34.1874 46.0722 34.9623 45.323L51.278 29.5497C51.7376 29.1054 52.4667 29.1056 52.926 29.5501Z" fill="#28AC47"/>
</svg>
