<svg width="20" height="20" viewBox="0 0 20 20" fill="none" xmlns="http://www.w3.org/2000/svg">
<path d="M16 0C16.1739 0 16.3412 0.0603719 16.4743 0.169024L16.5498 0.239913L19.8221 3.76824L19.8528 3.80714C19.9545 3.94281 20.0004 4.09665 20.0004 4.24775L19.9989 6.16674C19.9989 7.16092 19.6204 8.06668 18.9996 8.74776L18.9988 19.25C18.9988 19.6297 18.7166 19.9435 18.3505 19.9932L18.2488 20H1.75126C1.37156 20 1.05777 19.7178 1.0081 19.3518L1.00126 19.25L1.00047 8.74776C0.427415 8.11907 0.0607885 7.29893 0.00777531 6.39453L0.00111771 6.16674L0.000920296 4.29097C-0.00715016 4.15366 0.0225032 4.01238 0.096853 3.88313L0.162115 3.78767L0.201289 3.74193L3.45018 0.239913C3.56845 0.112432 3.72652 0.0308129 3.89668 0.00714779L4.00001 0H16ZM13.082 8.44208L13.07 8.45983C12.3711 9.39439 11.2556 9.99931 9.99883 9.99931C8.735 9.99931 7.61405 9.38757 6.91593 8.44405C6.21847 9.38757 5.09752 9.99931 3.83369 9.99931C3.36459 9.99931 2.91517 9.91503 2.49975 9.76078L2.50101 18.499H3.99963L4.00001 11.751C4.00001 11.3713 4.28217 11.0575 4.64824 11.0079L4.75001 11.001H9.24596C9.62566 11.001 9.93945 11.2832 9.98911 11.6492L9.99596 11.751L9.99563 18.499H17.498L17.4983 9.76153C17.0834 9.9153 16.6347 9.99931 16.1663 9.99931C14.9016 9.99931 13.78 9.38672 13.082 8.44208ZM8.49501 12.501H5.50001V18.499H8.49501V12.501ZM15.2547 11.001C15.6344 11.001 15.9482 11.2832 15.9979 11.6492L16.0047 11.751V15.253C16.0047 15.6327 15.7226 15.9465 15.3565 15.9962L15.2547 16.003H11.7533C11.3736 16.003 11.0598 15.7209 11.0101 15.3548L11.0033 15.253V11.751C11.0033 11.3713 11.2855 11.0575 11.6515 11.0079L11.7533 11.001H15.2547ZM14.504 12.501H12.503V14.503H14.504V12.501ZM6.16601 5.002H1.50101L1.50112 6.16674L1.50729 6.33777L1.53567 6.569L1.56842 6.72528L1.6178 6.89726L1.67215 7.0451L1.71283 7.1391C1.744 7.20697 1.77833 7.27309 1.81564 7.33727L1.91858 7.49873L1.97286 7.57344L2.10163 7.72909L2.24341 7.87318L2.33965 7.95811L2.38174 7.99243C2.69627 8.2429 3.07698 8.4138 3.49342 8.47467L3.67399 8.49393L3.83369 8.49931C5.06826 8.49931 6.07881 7.54019 6.16088 6.32644L6.16626 6.16674L6.16601 5.002ZM12.331 5.002H7.66601L7.66626 6.16674C7.66626 7.34763 8.54379 8.32356 9.68232 8.47801L9.83913 8.49393L9.99883 8.49931C11.2334 8.49931 12.244 7.54019 12.326 6.32644L12.3314 6.16674L12.331 5.002ZM18.498 5.002H13.833L13.8338 6.16674C13.8338 7.34763 14.7113 8.32356 15.8498 8.47801L16.0066 8.49393L16.1663 8.49931C16.7306 8.49931 17.2481 8.29892 17.6516 7.96542L17.7413 7.88731L17.8572 7.7736L18.0033 7.60441C18.0574 7.53545 18.1076 7.46337 18.1537 7.38849L18.2573 7.20179L18.3202 7.06383L18.3784 6.90873L18.4082 6.81314L18.4464 6.66108L18.4748 6.50352L18.4928 6.33678L18.4989 6.16674L18.498 5.002ZM7.06163 1.499H4.32701L2.46901 3.502H6.44563L7.06163 1.499ZM11.3686 1.499H8.63063L8.01463 3.502H11.9846L11.3686 1.499ZM15.672 1.499H12.9376L13.5536 3.502H17.53L15.672 1.499Z" fill="white" fill-opacity="0.7"/>
</svg>
