<svg width="22" height="25" viewBox="0 0 22 25" fill="none" xmlns="http://www.w3.org/2000/svg">
<path d="M14.3055 0.839844L21.8055 8.33984V24.4062H20.3055V8.97266L15.8055 4.47266V9.40625H17.3055V24.4062H12.8055V19.9062H11.3055V24.4062H6.80545V9.40625H11.3055V7.90625H2.30545V24.4062H0.80545V6.40625H12.8055V9.40625H14.3055V0.839844ZM15.8055 22.9062V10.9062H8.30545V22.9062H9.80545V18.4062H14.3055V22.9062H15.8055ZM3.80545 10.9062V9.40625H5.30545V10.9062H3.80545ZM3.80545 13.9062V12.4062H5.30545V13.9062H3.80545ZM3.80545 16.9062V15.4062H5.30545V16.9062H3.80545ZM3.80545 19.9062V18.4062H5.30545V19.9062H3.80545ZM3.80545 22.9062V21.4062H5.30545V22.9062H3.80545ZM14.3055 12.4062V13.9062H12.8055V12.4062H14.3055ZM14.3055 15.4062V16.9062H12.8055V15.4062H14.3055ZM11.3055 12.4062V13.9062H9.80545V12.4062H11.3055ZM11.3055 15.4062V16.9062H9.80545V15.4062H11.3055Z" fill="#2C48BF"/>
</svg>
